# xmcd
#
# Track frame offsets:
#	150
#	34790
#	100894
#
# Disc length: 2145 seconds
#
# Revision: 1
# Processed by: cddbd v1.5.2PL0 Copyright (c) Steve Scherf et al.
# Submitted via: audiograbber 1.83.01
#
DISCID=1c085f03
DTITLE=Grateful Dead - 78-09-02 Giants Stadium, East Rutherford NJ
DYEAR=1900
DGENRE=
TTITLE0=Good Lovin'
TTITLE1=Scarlet Begonias
TTITLE2=Fire On The Mountain
EXTD=
EXTT0=
EXTT1=
EXTT2=
PLAYORDER=
